<svg xmlns="http://www.w3.org/2000/svg" width="256" height="256"><path fill-opacity=".016" d="M0 128.004v128.004l128.25-.254 128.25-.254.254-127.75L257.008 0H0v128.004m.485.496c0 70.4.119 99.053.265 63.672.146-35.38.146-92.98 0-128C.604 29.153.485 58.1.485 128.5" fill="#1976D2" fill-rule="evenodd"/><path fill-opacity=".167" d="M2 128.943V256h9.5L11 129.25 10.5 2.5l-4.25-.307L2 1.885v127.058m162.417-99.11c-1.696 1.064-4.511 2.248-6.256 2.632-3.229.709-5.481 2.301-12.075 8.535C140.741 46.054 136 56.506 136 63.237c0 2.95-.54 5.903-1.2 6.563-.831.831-6.01 1.2-16.845 1.2-14.575 0-15.774.142-17.527 2.08-2.678 2.959-2.51 9.282.322 12.114 1.912 1.913 3.628 2.277 12.966 2.755 11.517.59 12.946 1.394 9.895 5.57-1.38 1.889-3.018 2.004-35.378 2.481-38.178.563-37.545.436-37.033 7.39.44 5.964 2.342 6.578 20.451 6.595l15.151.015 1.998 3.386 1.998 3.385-2.446 1.115c-1.345.613-5.385 1.114-8.976 1.114-5.884 0-6.819.289-9.453 2.923-3.811 3.811-3.69 6.51.477 10.677l3.4 3.4h14.631c15.934 0 17.063.426 14.722 5.564l-1.11 2.436H64.521c-36.188 0-37.592.071-39.521 2-2.688 2.688-2.642 8.109.09 10.582 1.868 1.69 4.325 1.946 23.083 2.405 19.296.471 21.108.67 22.41 2.454.779 1.068 1.417 2.316 1.417 2.775 0 1.903-5.898 2.784-18.631 2.784-7.425 0-14.366.463-15.424 1.03-2.58 1.38-5.191 6.619-4.455 8.938.326 1.027 1.507 3.029 2.624 4.45L38.145 184h32.493c20.55 0 33.207.382 34.434 1.038 1.809.969 1.837 1.238.408 4-1.508 2.918-1.655 2.962-9.756 2.968-13.698.009-18.284 2.309-17.536 8.793.223 1.931 1.309 3.199 3.812 4.449 2.964 1.481 6.418 1.749 22.563 1.75l19.063.002 2.841 2.966 2.842 2.966-2.72 1.034c-1.495.569-6.131 1.034-10.301 1.034-7.054 0-7.964.254-13.085 3.653l-5.504 3.654-2.6-3.115c-2.068-2.478-3.643-3.247-7.709-3.763-5.401-.687-8.072.165-12.14 3.87-3.065 2.792-2.825 6.28.673 9.778 2.596 2.596 3.61 2.923 9.066 2.923 7.437 0 9.447-.959 10.96-5.229 1.083-3.054 1.25-3.149 2.529-1.434.754 1.011 2.842 2.923 4.64 4.25l3.271 2.413h57.094c55.46 0 57.207-.058 61.056-2.035 2.178-1.12 5.986-2.535 8.461-3.146 6.201-1.531 9.699-3.43 11.566-6.279 1.413-2.157 1.465-4.935.483-25.729-1.162-24.606-2.77-45.55-3.599-46.892-.272-.441-1.144-11.858-1.937-25.372-.793-13.513-1.865-26.252-2.383-28.308-.517-2.057-1.241-6.645-1.608-10.196-.368-3.551-1.287-7.939-2.044-9.75-1.368-3.274-1.418-3.294-8.677-3.445C213.108 70.604 213 70.54 213 63.913c0-5.769-5.549-18.597-8.942-20.671-1.132-.693-2.058-1.93-2.058-2.75 0-.821-.388-1.492-.862-1.492-.475 0-2.523-1.319-4.552-2.932-2.029-1.612-5.129-3.238-6.888-3.611-1.759-.374-4.031-1.416-5.05-2.316-2.944-2.6-16.255-2.803-20.231-.308m2.333 11.797c-.963.284-1.75.916-1.75 1.403 0 .488-1.776 1.419-3.947 2.069-3.778 1.132-8.093 5.325-10.891 10.582-.639 1.202-1.162 4.906-1.162 8.231 0 5.441.226 6.102 2.25 6.598 1.238.303 12.6.424 25.25.269l23-.282.304-5.314c.269-4.686-.117-5.951-3.261-10.687-3.702-5.577-7.874-9.499-10.106-9.499-.712 0-2.031-.737-2.932-1.638-1.658-1.658-13.024-2.832-16.755-1.732M71.364 72.17C69.229 73.203 67 76.911 67 79.428c0 1.698 5.745 7.356 8.287 8.163 1.061.337 4.314.314 7.228-.05 4.758-.594 5.565-1.064 7.905-4.6l2.607-3.938-2.526-4.002L87.975 71l-7.238.068c-3.98.037-8.198.533-9.373 1.102m33.864 39.06c-2.301 1.109-4.055 5.276-2.765 6.567 1.153 1.153 20.325.815 21.52-.38 1.577-1.577.193-4.274-3.055-5.954-3.276-1.694-12.387-1.829-15.7-.233m-63.445 9.52c-3.597 4.124-3.945 6.013-1.859 10.101 1.485 2.911 2.771 4.038 5.153 4.514 8.417 1.684 14.759-.213 17.33-5.185 1.258-2.434 1.253-3.172-.044-5.85-1.946-4.019-5.085-5.33-12.755-5.33-4.75 0-6.673.43-7.825 1.75m45.256 40.439c-2.688 2.884-2.576 3.655.711 4.912 3.556 1.36 23.782.773 25.285-.734.841-.842.408-1.803-1.692-3.75-2.642-2.45-3.444-2.617-12.544-2.617-8.713 0-9.933.227-11.76 2.189m-34.263 31.964c-1.925.704-3.027 2.073-3.762 4.672-.968 3.426-.833 3.861 1.99 6.425 6.087 5.528 21.121 2.757 21.803-4.02.53-5.272-4.633-8.348-13.682-8.151-1.994.043-4.851.527-6.349 1.074m195.872 12.097c-.928 7.724-.784 13.548.352 14.25.641.396 1-2.99 1-9.441 0-5.532-.162-10.059-.361-10.059-.198 0-.644 2.363-.991 5.25m-.576 48.615c-.992 1.855-.875 2.135.893 2.135 2.207 0 2.492-.73 1.127-2.885-.701-1.107-1.107-.956-2.02.75" fill="#1976D2" fill-rule="evenodd"/><path fill-opacity=".459" d="M2 129.5V256h7.5l-.251-125.25C9.111 61.863 8.788 4.938 8.53 4.25 8.273 3.563 6.699 3 5.031 3H2v126.5m162.5-96.609c-5.66 1.65-12.143 5.181-15.5 8.442-3.093 3.004-6 6.876-6.009 8.002-.005.641-1.116 3.415-2.469 6.165-1.353 2.75-2.474 6.8-2.492 9-.018 2.2-.82 5.492-1.782 7.315L134.5 75.13l-15.216.185c-13 .158-15.471.44-16.964 1.935-1.63 1.631-1.636 1.863-.087 3.411 1.183 1.184 4.357 1.865 11.037 2.371 9.984.755 13.032 1.795 14.768 5.04 1.592 2.974-.566 8.798-3.701 9.99-1.357.516-16.95.945-34.652.953-17.702.009-32.796.403-33.542.875-1.498.95-.691 5.071 1.242 6.345.613.404 7.64.742 15.615.751 11.802.014 15.14.342 17.94 1.766 3.483 1.77 5.755 5.994 4.701 8.74-.96 2.502-10.232 6.508-15.061 6.508-4.328 0-9.58 1.629-9.58 2.972 0 .359 1.332 1.637 2.96 2.84 2.665 1.971 4.179 2.188 15.25 2.192 10.614.003 12.747.282 15.642 2.047 3.097 1.888 3.303 2.326 2.7 5.747-1.304 7.387-.211 7.202-42.579 7.202-27.792 0-37.909.307-38.193 1.16-.213.638-.205 2.4.018 3.917l.405 2.756 21.864.334c24.2.369 24.249.382 25.443 6.931.538 2.955.212 4.113-1.823 6.48l-2.479 2.881-15.354.523c-8.445.288-15.916.887-16.604 1.33-2.031 1.31-1.439 3.518 1.453 5.415 2.404 1.577 6.304 1.828 35.348 2.273 36.761.563 36.259.459 35.749 7.39-.407 5.509-2.787 6.573-14.8 6.611-5.225.016-9.993.36-10.596.764-.603.404-1.394 1.954-1.759 3.445-1.06 4.331 1.178 4.79 23.355 4.79 11.405 0 20.935.43 21.986.992 1.019.546 2.367 2.549 2.995 4.451 2.345 7.106-2.382 10.387-15.333 10.642-5.311.105-9.292.675-10.381 1.486-1.622 1.208-1.641 1.546-.229 4.123l1.538 2.806 53.153.259c51.2.249 53.34.185 58.249-1.75 2.803-1.105 6.116-2.009 7.363-2.009 1.892 0 8.118-2.515 14.616-5.904 1.149-.599 1.402-2.749 1.195-10.178-.277-9.954-1.877-26.664-2.677-27.958-.261-.423-1.145-13.974-1.964-30.114s-2.139-32.946-2.933-37.346c-.794-4.4-1.765-14.187-2.156-21.748-.5-9.652-1.118-14.085-2.073-14.877-1.213-1.007-5.11-1.521-13.573-1.789-3.207-.101-5.217-3.366-6.039-9.805-.788-6.175-5.374-17.327-8.545-20.781-4.633-5.045-13.37-10.307-19.836-11.944-7.608-1.927-10.267-1.877-17.856.335m1 6.776c-2.999.841-10.886 5.548-11.806 7.045-.444.721-1.86 2.319-3.148 3.55-4.526 4.324-5.947 18.046-2.296 22.166l2.25 2.539 23.681.118c13.025.065 24.166-.181 24.757-.547 5.026-3.106 4.288-14.788-1.461-23.136-2.025-2.941-5.851-6.717-8.578-8.467-4.319-2.771-5.929-3.199-13.16-3.494-4.531-.185-9.139-.083-10.239.226m-92.464 37.45-2.465 2.051 2.465 1.894c2.913 2.239 10.677 2.6 13.382.622.99-.724 1.636-2.167 1.435-3.206-.708-3.678-10.908-4.614-14.817-1.361M104 107.732c-1.375.253-3.051.912-3.724 1.464-1.794 1.473-2.627 7.28-1.379 9.612 1.755 3.279 9.056 5.492 16.549 5.015 7.633-.487 11.872-2.983 12.382-7.293.611-5.165-.58-7.367-4.586-8.48-3.704-1.028-14.415-1.206-19.242-.318M48.602 123.97c-9.092.984-8.652 6.376.624 7.647 4.07.558 5.069.312 7.691-1.894 2.239-1.884 2.701-2.783 1.798-3.497-2.716-2.148-5.458-2.759-10.113-2.256m38.925 31.845c-5.485 1.283-7.154 8.18-3.116 12.879 2.341 2.724 2.744 2.816 13.75 3.131 10.592.304 11.57.168 14.839-2.063 3.111-2.124 3.49-2.861 3.41-6.63-.143-6.713-1.552-7.46-14.63-7.757-6.204-.141-12.618.057-14.253.44m-33.86 39.852c-.367.366-.667 2.134-.667 3.928 0 3.194.111 3.275 5.379 3.933 7.002.875 9.9-.517 8.992-4.318-.356-1.491-.837-3.048-1.068-3.46-.521-.928-11.718-1.002-12.636-.083M79.5 221.124c-1.1.644-2.152 1.294-2.338 1.445-1.027.832 4.525 6.431 6.377 6.431 5.823 0 11.416-4.469 8.81-7.039-1.504-1.484-10.718-2.084-12.849-.837" fill="#1976D2" fill-rule="evenodd"/><path fill-opacity=".779" d="M2 130v126h6V4H2v126m159.25-94.338c-3.516 1.419.1 1.972 13.25 2.026 13.533.055 17.591-.626 12.25-2.058-2.679-.718-23.707-.691-25.5.032m-6.74 6.354c.346.559 1.047.758 1.559.441 1.387-.857 1.129-1.457-.628-1.457-.857 0-1.276.457-.931 1.016M192 42c0 .55.675 1 1.5 1s1.5-.45 1.5-1-.675-1-1.5-1-1.5.45-1.5 1m-42.417 3.866c-.431.697-.513 1.537-.183 1.867.895.895 1.871-.421 1.387-1.871-.338-1.016-.574-1.016-1.204.004m47.417.575c0 1.792 1.652 2.892 3.049 2.029.716-.443.678-1.094-.123-2.059-1.511-1.821-2.926-1.806-2.926.03m5.521 4.526c-.793 1.283.429 7.884 1.592 8.603.488.301.887-1.477.887-3.952 0-4.374-1.228-6.677-2.479-4.651M144 52.5c0 .825.45 1.5 1 1.5s1-.675 1-1.5-.45-1.5-1-1.5-1 .675-1 1.5m-4.397 17.528c-3.071 8.963-2.55 14.972 1.3 14.972 2.859 0 6.34-4.758 5.017-6.857-.57-.904-2.111-3.43-3.424-5.615-1.629-2.709-2.549-3.504-2.893-2.5m66.286 3.634c-2.12.567-4.113 5.056-3.334 7.51.557 1.757 4.093 3.828 6.535 3.828 2.083 0 2.864-4.865 1.359-8.467-.812-1.943-1.807-3.481-2.212-3.417-.406.064-1.462.31-2.348.546" fill="#1976D2" fill-rule="evenodd"/></svg>